<svg width="1600" height="960" viewBox="0 0 1600 960" fill="none" xmlns="http://www.w3.org/2000/svg">
  <rect width="1600" height="960" fill="#0F172A"/>
  <rect width="1600" height="960" fill="url(#paint0_radial)"/>
  <g opacity="0.14" stroke="#5EEAD4" stroke-width="1">
    <path d="M0 120H1600"/>
    <path d="M0 240H1600"/>
    <path d="M0 360H1600"/>
    <path d="M0 480H1600"/>
    <path d="M0 600H1600"/>
    <path d="M0 720H1600"/>
    <path d="M0 840H1600"/>
    <path d="M160 0V960"/>
    <path d="M320 0V960"/>
    <path d="M480 0V960"/>
    <path d="M640 0V960"/>
    <path d="M800 0V960"/>
    <path d="M960 0V960"/>
    <path d="M1120 0V960"/>
    <path d="M1280 0V960"/>
    <path d="M1440 0V960"/>
  </g>
  <g opacity="0.6">
    <circle cx="1180" cy="220" r="180" fill="#134E4A"/>
    <circle cx="420" cy="250" r="220" fill="#1D4ED8"/>
    <circle cx="820" cy="720" r="260" fill="#0F766E"/>
  </g>
  <defs>
    <radialGradient id="paint0_radial" cx="0" cy="0" r="1" gradientUnits="userSpaceOnUse" gradientTransform="translate(800 480) rotate(90) scale(540 900)">
      <stop stop-color="#1E293B" stop-opacity="0"/>
      <stop offset="1" stop-color="#020617"/>
    </radialGradient>
  </defs>
</svg>
